<svg xmlns="http://www.w3.org/2000/svg" viewBox="0 0 1280 720" width="1280" height="720">
  <g id="background">
    <rect width="1280" height="720" fill="#05070D" />
    <path d="M80 155H1200 M80 600H1200" stroke="#1C2A3D" stroke-width="1" stroke-dasharray="8,4" />
  </g>
  <g id="header">
    <text x="56" y="72" font-family="&quot;Microsoft YaHei&quot;, Arial, sans-serif" font-size="52" font-weight="800" fill="#F8FAFC">v2.0 的真正转折是统一底座，不是堆新工</text>
    <text x="58" y="112" font-family="&quot;Microsoft YaHei&quot;, Arial, sans-serif" font-size="22" fill="#B6C2D2">扩展新工具不再改 Executor 主干，是进入同一套工具契约</text>
  </g>
  <g id="pillar-basetool">
    <path fill="#111827" stroke="#7DD3FC" d="M76,180 H324 A6,6 0 0 1 330,186 V564 A6,6 0 0 1 324,570 H76 A6,6 0 0 1 70,564 V186 A6,6 0 0 1 76,180 Z" />
    
  <g transform="translate(96, 210) scale(2.375)" fill="#7DD3FC">
    <path fill-rule="evenodd" clip-rule="evenodd" d="M15 1H1V15H15V1ZM6 5L7.41421 6.41421L5.82843 8L7.41421 9.58579L6 11L3 8L6 5ZM10 5L8.58579 6.41421L10.1716 8L8.58579 9.58579L10 11L13 8L10 5Z" />
  </g>
    <text x="96" y="292" font-family="Consolas, &quot;Microsoft YaHei&quot;, &quot;Courier New&quot;, monospace" font-size="28" font-weight="700" fill="#7DD3FC">BaseTool</text>
    <text x="96" y="348" font-family="&quot;Microsoft YaHei&quot;, Arial, sans-serif" font-size="26" fill="#F8FAFC">统一入口</text>
    <text x="96" y="392" font-family="&quot;Microsoft YaHei&quot;, Arial, sans-serif" font-size="22" fill="#B6C2D2">run(ctx, params)</text>
    <text x="96" y="430" font-family="&quot;Microsoft YaHei&quot;, Arial, sans-serif" font-size="22" fill="#B6C2D2">统一 success/error</text>
    <text x="96" y="500" font-family="&quot;Microsoft YaHei&quot;, Arial, sans-serif" font-size="22" fill="#F59E0B">收益：工具接口零散度下降</text>
  </g>
  <g id="pillar-context">
    <path fill="#111827" stroke="#8B5CF6" d="M368,180 H616 A6,6 0 0 1 622,186 V564 A6,6 0 0 1 616,570 H368 A6,6 0 0 1 362,564 V186 A6,6 0 0 1 368,180 Z" />
    
  <g transform="translate(388, 210) scale(2.375)" fill="#8B5CF6">
    <path fill-rule="evenodd" clip-rule="evenodd" d="M16 2H0V7H16V2ZM4 4.5C4 5.05228 3.55228 5.5 3 5.5C2.44772 5.5 2 5.05228 2 4.5C2 3.94772 2.44772 3.5 3 3.5C3.55228 3.5 4 3.94772 4 4.5Z" />
    <path fill-rule="evenodd" clip-rule="evenodd" d="M16 9H0V14H16V9ZM3 12.5C3.55228 12.5 4 12.0523 4 11.5C4 10.9477 3.55228 10.5 3 10.5C2.44772 10.5 2 10.9477 2 11.5C2 12.0523 2.44772 12.5 3 12.5Z" />
  </g>
    <text x="388" y="292" font-family="Consolas, &quot;Microsoft YaHei&quot;, &quot;Courier New&quot;, monospace" font-size="28" font-weight="700" fill="#8B5CF6">ToolContext</text>
    <text x="388" y="348" font-family="&quot;Microsoft YaHei&quot;, Arial, sans-serif" font-size="26" fill="#F8FAFC">运行时封</text>
    <text x="388" y="392" font-family="&quot;Microsoft YaHei&quot;, Arial, sans-serif" font-size="22" fill="#B6C2D2">db session</text>
    <text x="388" y="430" font-family="&quot;Microsoft YaHei&quot;, Arial, sans-serif" font-size="22" fill="#B6C2D2">user / role / session</text>
    <text x="388" y="500" font-family="&quot;Microsoft YaHei&quot;, Arial, sans-serif" font-size="22" fill="#F59E0B">收益：依赖传递标准化</text>
  </g>
  <g id="pillar-registry">
    <path fill="#111827" stroke="#F59E0B" d="M660,180 H908 A6,6 0 0 1 914,186 V564 A6,6 0 0 1 908,570 H660 A6,6 0 0 1 654,564 V186 A6,6 0 0 1 660,180 Z" />
    
  <g transform="translate(680, 210) scale(2.375)" fill="#F59E0B">
    <path d="M1 5V3L8 0L15 3V5L8 8L1 5Z" />
    <path d="M8 16L1 13V11L8 14L15 11V13L8 16Z" />
    <path d="M1 9L8 12L15 9V7L8 10L1 7V9Z" />
  </g>
    <text x="680" y="292" font-family="Consolas, &quot;Microsoft YaHei&quot;, &quot;Courier New&quot;, monospace" font-size="28" font-weight="700" fill="#F59E0B">Registry</text>
    <text x="680" y="348" font-family="&quot;Microsoft YaHei&quot;, Arial, sans-serif" font-size="26" fill="#F8FAFC">查表分发</text>
    <text x="680" y="392" font-family="&quot;Microsoft YaHei&quot;, Arial, sans-serif" font-size="22" fill="#B6C2D2">替代 if / elif</text>
    <text x="680" y="430" font-family="&quot;Microsoft YaHei&quot;, Arial, sans-serif" font-size="22" fill="#B6C2D2">新增工具低改</text>
    <text x="680" y="500" font-family="&quot;Microsoft YaHei&quot;, Arial, sans-serif" font-size="22" fill="#F59E0B">收益：Executor 不膨胢</text>
  </g>
  <g id="pillar-planstep">
    <path fill="#111827" stroke="#22C55E" d="M952,180 H1200 A6,6 0 0 1 1206,186 V564 A6,6 0 0 1 1200,570 H952 A6,6 0 0 1 946,564 V186 A6,6 0 0 1 952,180 Z" />
    
  <g transform="translate(972, 210) scale(2.375)" fill="#22C55E">
    <path d="M5 3C5 4.10457 4.10457 5 3 5C1.89543 5 1 4.10457 1 3C1 1.89543 1.89543 1 3 1C4.10457 1 5 1.89543 5 3Z" />
    <path d="M15 13C15 14.1046 14.1046 15 13 15C11.8954 15 11 14.1046 11 13C11 11.8954 11.8954 11 13 11C14.1046 11 15 11.8954 15 13Z" />
    <path d="M9 4.5C9 3.67157 9.67157 3 10.5 3C11.3284 3 12 3.67157 12 4.5V9H14V4.5C14 2.567 12.433 1 10.5 1C8.567 1 7 2.567 7 4.5V11.5C7 12.3284 6.32843 13 5.5 13C4.67157 13 4 12.3284 4 11.5V7H2V11.5C2 13.433 3.567 15 5.5 15C7.433 15 9 13.433 9 11.5V4.5Z" />
  </g>
    <text x="972" y="292" font-family="Consolas, &quot;Microsoft YaHei&quot;, &quot;Courier New&quot;, monospace" font-size="28" font-weight="700" fill="#22C55E">PlanStep</text>
    <text x="972" y="348" font-family="&quot;Microsoft YaHei&quot;, Arial, sans-serif" font-size="26" fill="#F8FAFC">链式传</text>
    <text x="972" y="392" font-family="&quot;Microsoft YaHei&quot;, Arial, sans-serif" font-size="22" fill="#B6C2D2">params</text>
    <text x="972" y="430" font-family="&quot;Microsoft YaHei&quot;, Arial, sans-serif" font-size="22" fill="#B6C2D2">inputs_from</text>
    <text x="972" y="500" font-family="&quot;Microsoft YaHei&quot;, Arial, sans-serif" font-size="22" fill="#F59E0B">收益：跨工具协作可控</text>
  </g>
  <g id="takeaway">
    <text x="640" y="646" text-anchor="middle" font-family="&quot;Microsoft YaHei&quot;, Arial, sans-serif" font-size="34" font-weight="700" fill="#F59E0B">统一底座让加工具”变成注册新能力，不是重写执行器</text>
  </g>
</svg>