<svg xmlns="http://www.w3.org/2000/svg" viewBox="0 0 1280 720" width="1280" height="720">
  <g id="background">
    <rect width="1280" height="720" fill="#05070D" />
    <path d="M56 138H1224 M56 234H1224 M56 330H1224 M56 426H1224 M56 522H1224 M56 618H1224" stroke="#1C2A3D" stroke-width="1" stroke-dasharray="8,4" />
  </g>
  <g id="header">
    <text x="56" y="72" font-family="&quot;Microsoft YaHei&quot;, Arial, sans-serif" font-size="52" font-weight="800" fill="#F8FAFC">文档、接口模型和测试沉淀让交付可复查</text>
    <text x="58" y="112" font-family="&quot;Microsoft YaHei&quot;, Arial, sans-serif" font-size="22" fill="#B6C2D2">交付物覆盖需求设计模型接口迭代计划测试和协议规范，验收证据链完整</text>
  </g>
  <g id="delivery-table">
    <path fill="#111827" stroke="#2A3A52" d="M64,150 H1216 A6,6 0 0 1 1222,156 V574 A6,6 0 0 1 1216,580 H64 A6,6 0 0 1 58,574 V156 A6,6 0 0 1 64,150 Z" />
    <path fill="#111827" stroke="#2A3A52" d="M64,150 H1216 A6,6 0 0 1 1222,156 V200 A6,6 0 0 1 1216,206 H64 A6,6 0 0 1 58,200 V156 A6,6 0 0 1 64,150 Z" />
    <text x="88" y="186" font-family="&quot;Microsoft YaHei&quot;, Arial, sans-serif" font-size="24" font-weight="800" fill="#7DD3FC">交付</text>
    <text x="276" y="186" font-family="&quot;Microsoft YaHei&quot;, Arial, sans-serif" font-size="24" font-weight="800" fill="#7DD3FC">核心资产</text>
    <text x="804" y="186" font-family="&quot;Microsoft YaHei&quot;, Arial, sans-serif" font-size="24" font-weight="800" fill="#7DD3FC">验收价</text>
    <text x="1140" y="186" text-anchor="middle" font-family="&quot;Microsoft YaHei&quot;, Arial, sans-serif" font-size="24" font-weight="800" fill="#7DD3FC">状</text>
    <line x1="248" y1="150" x2="248" y2="580" stroke="#2A3A52" />
    <line x1="776" y1="150" x2="776" y2="580" stroke="#2A3A52" />
    <line x1="1084" y1="150" x2="1084" y2="580" stroke="#2A3A52" />
    <path d="M58 268H1222 M58 330H1222 M58 392H1222 M58 454H1222 M58 516H1222" stroke="#2A3A52" />
  </g>
  <g id="row-requirements">
    
  <g transform="translate(88, 222) scale(2.125)" fill="#7DD3FC">
    <path d="M0 2H3.58579C4.49129 2 5.35971 2.35971 6 3C6.64029 3.64029 7 4.50871 7 5.41421V11H9V5.41421C9 4.50871 9.35971 3.64029 10 3C10.6403 2.35971 11.5087 2 12.4142 2H16V13H11L9 15H7L5 13H0V2Z" />
  </g>
    <text x="136" y="248" font-family="&quot;Microsoft YaHei&quot;, Arial, sans-serif" font-size="26" font-weight="800" fill="#F8FAFC">霢求与迭代</text>
    <text x="276" y="248" font-family="&quot;Microsoft YaHei&quot;, Arial, sans-serif" font-size="22" fill="#B6C2D2">v1.0 ?v2.3 霢求架构说明迭代结与下版规</text>
    <text x="804" y="248" font-family="&quot;Microsoft YaHei&quot;, Arial, sans-serif" font-size="22" fill="#B6C2D2">证明范围边界清晰，不?MVP 写成通用平台</text>
    <text x="1140" y="248" text-anchor="middle" font-family="&quot;Microsoft YaHei&quot;, Arial, sans-serif" font-size="24" font-weight="800" fill="#22C55E">完成</text>
  </g>
  <g id="row-models">
    
  <g transform="translate(88, 284) scale(2.125)" fill="#8B5CF6">
    <path d="M13.1371 6.91018C13.4184 6.7695 13.7123 6.59981 14 6.40001V8C14 9.65685 11.3137 11 8 11C4.68629 11 2 9.65685 2 8V6.40001C2.28772 6.59981 2.58158 6.7695 2.86293 6.91018C4.28096 7.61919 6.09998 8 8 8C9.90002 8 11.719 7.61919 13.1371 6.91018Z" />
    <path d="M2 11.4V13C2 14.6569 4.68629 16 8 16C11.3137 16 14 14.6569 14 13V11.4C13.7123 11.5998 13.4184 11.7695 13.1371 11.9102C11.719 12.6192 9.90002 13 8 13C6.09998 13 4.28096 12.6192 2.86293 11.9102C2.58158 11.7695 2.28772 11.5998 2 11.4Z" />
    <path d="M8 0C11.3137 0 14 1.34315 14 3C14 4.65685 11.3137 6 8 6C4.68629 6 2 4.65685 2 3C2 1.34315 4.68629 0 8 0Z" />
  </g>
    <text x="136" y="310" font-family="&quot;Microsoft YaHei&quot;, Arial, sans-serif" font-size="26" font-weight="800" fill="#F8FAFC">数据模型</text>
    <text x="276" y="310" font-family="Consolas, &quot;Microsoft YaHei&quot;, &quot;Courier New&quot;, monospace" font-size="20" fill="#B6C2D2">AgentTask / AgentFeedback / TalkSession / TalkMessage</text>
    <text x="804" y="310" font-family="&quot;Microsoft YaHei&quot;, Arial, sans-serif" font-size="22" fill="#B6C2D2">任务、反馈历史对话可落表、可追踪</text>
    <text x="1140" y="310" text-anchor="middle" font-family="&quot;Microsoft YaHei&quot;, Arial, sans-serif" font-size="24" font-weight="800" fill="#22C55E">完成</text>
  </g>
  <g id="row-apis">
    
  <g transform="translate(88, 346) scale(2.125)" fill="#F59E0B">
    <path fill-rule="evenodd" clip-rule="evenodd" d="M16 2H0V7H16V2ZM4 4.5C4 5.05228 3.55228 5.5 3 5.5C2.44772 5.5 2 5.05228 2 4.5C2 3.94772 2.44772 3.5 3 3.5C3.55228 3.5 4 3.94772 4 4.5Z" />
    <path fill-rule="evenodd" clip-rule="evenodd" d="M16 9H0V14H16V9ZM3 12.5C3.55228 12.5 4 12.0523 4 11.5C4 10.9477 3.55228 10.5 3 10.5C2.44772 10.5 2 10.9477 2 11.5C2 12.0523 2.44772 12.5 3 12.5Z" />
  </g>
    <text x="136" y="372" font-family="&quot;Microsoft YaHei&quot;, Arial, sans-serif" font-size="26" font-weight="800" fill="#F8FAFC">接口清单</text>
    <text x="276" y="372" font-family="Consolas, &quot;Microsoft YaHei&quot;, &quot;Courier New&quot;, monospace" font-size="20" fill="#B6C2D2">chat / stream / confirm / feedback / admin / health</text>
    <text x="804" y="372" font-family="&quot;Microsoft YaHei&quot;, Arial, sans-serif" font-size="22" fill="#B6C2D2">前后端边界和运营入口均可复查</text>
    <text x="1140" y="372" text-anchor="middle" font-family="&quot;Microsoft YaHei&quot;, Arial, sans-serif" font-size="24" font-weight="800" fill="#22C55E">完成</text>
  </g>
  <g id="row-tests">
    
  <g transform="translate(88, 408) scale(2.125)" fill="#22C55E">
    <path fill-rule="evenodd" clip-rule="evenodd" d="M8 16C12.4183 16 16 12.4183 16 8C16 3.58172 12.4183 0 8 0C3.58172 0 0 3.58172 0 8C0 12.4183 3.58172 16 8 16ZM12.7071 5.70711L11.2929 4.29289L6.5 9.08579L4.70711 7.29289L3.29289 8.70711L6.5 11.9142L12.7071 5.70711Z" />
  </g>
    <text x="136" y="434" font-family="&quot;Microsoft YaHei&quot;, Arial, sans-serif" font-size="26" font-weight="800" fill="#F8FAFC">测试文档</text>
    <text x="276" y="434" font-family="&quot;Microsoft YaHei&quot;, Arial, sans-serif" font-size="22" fill="#B6C2D2">36 份测试数据与回归说明，覆盖反馈监控HITL、MCP、Supervisor</text>
    <text x="804" y="434" font-family="&quot;Microsoft YaHei&quot;, Arial, sans-serif" font-size="22" fill="#B6C2D2">从能运行”推进到“能回归</text>
    <text x="1140" y="434" text-anchor="middle" font-family="&quot;Microsoft YaHei&quot;, Arial, sans-serif" font-size="24" font-weight="800" fill="#22C55E">完成</text>
  </g>
  <g id="row-protocols">
    
  <g transform="translate(88, 470) scale(2.125)" fill="#7DD3FC">
    <path d="M11 0H5V12H15V4L11 0Z" />
    <path d="M1 4V16H11V14H3V4H1Z" />
  </g>
    <text x="136" y="496" font-family="&quot;Microsoft YaHei&quot;, Arial, sans-serif" font-size="26" font-weight="800" fill="#F8FAFC">协议规范</text>
    <text x="276" y="496" font-family="&quot;Microsoft YaHei&quot;, Arial, sans-serif" font-size="22" fill="#B6C2D2">Agent 卡片协议、接入改造设计AI 执行规范</text>
    <text x="804" y="496" font-family="&quot;Microsoft YaHei&quot;, Arial, sans-serif" font-size="22" fill="#B6C2D2">结构化展示和工具接入具备统一语言</text>
    <text x="1140" y="496" text-anchor="middle" font-family="&quot;Microsoft YaHei&quot;, Arial, sans-serif" font-size="24" font-weight="800" fill="#22C55E">完成</text>
  </g>
  <g id="row-build">
    
  <g transform="translate(88, 532) scale(2.125)" fill="#F59E0B">
    <path d="M9 7L10 0H8L2 7V9H7L6 16H8L14 9L14 7H9Z" />
  </g>
    <text x="136" y="558" font-family="&quot;Microsoft YaHei&quot;, Arial, sans-serif" font-size="26" font-weight="800" fill="#F8FAFC">工程验证</text>
    <text x="276" y="558" font-family="Consolas, &quot;Microsoft YaHei&quot;, &quot;Courier New&quot;, monospace" font-size="20" fill="#B6C2D2">compileall / build / UI regression / Playwright</text>
    <text x="804" y="558" font-family="&quot;Microsoft YaHei&quot;, Arial, sans-serif" font-size="22" fill="#B6C2D2">编译、构建静态检查与真浏览器回归闭合</text>
    <text x="1140" y="558" text-anchor="middle" font-family="&quot;Microsoft YaHei&quot;, Arial, sans-serif" font-size="24" font-weight="800" fill="#22C55E">通过</text>
  </g>
  <g id="takeaway">
    <path fill="#111827" stroke="#2A3A52" d="M194,610 H1086 A6,6 0 0 1 1092,616 V656 A6,6 0 0 1 1086,662 H194 A6,6 0 0 1 188,656 V616 A6,6 0 0 1 194,610 Z" />
    <text x="640" y="644" text-anchor="middle" font-family="&quot;Microsoft YaHei&quot;, Arial, sans-serif" font-size="28" font-weight="800" fill="#F59E0B">交付不是丢组截图，而是丢条从霢求到回归的可审计证据链</text>
  </g>
  <g id="footer">
    <text x="56" y="676" font-family="&quot;Microsoft YaHei&quot;, Arial, sans-serif" font-size="16" fill="#7F8EA3">P13 ?basic table adaptation ?Source: Agent 系统验收说明文档</text>
  </g>
</svg>